<svg xmlns="http://www.w3.org/2000/svg" viewBox="0 0 24 24"><path d="M12 2C6.48 2 2 6.48 2 12s4.48 10 10 10 10-4.48 10-10S17.52 2 12 2zm6.93 6h-2.95a15.65 15.65 0 0 0-1.38-3.56A8.03 8.03 0 0 1 18.92 8zM12 4.04c.83 1.2 1.48 2.53 1.91 3.96h-3.82c.43-1.43 1.08-2.76 1.91-3.96zM4.26 14a7.96 7.96 0 0 1 0-4h3.38a16.5 16.5 0 0 0 0 4H4.26zm.81 2h2.95c.32 1.25.78 2.45 1.38 3.56A7.99 7.99 0 0 1 5.07 16zm2.95-8H5.07a7.99 7.99 0 0 1 4.33-3.56A15.65 15.65 0 0 0 8.02 8zM12 19.96c-.83-1.2-1.48-2.53-1.91-3.96h3.82c-.43 1.43-1.08 2.76-1.91 3.96zM14.34 14H9.66a14.6 14.6 0 0 1 0-4h4.68a14.6 14.6 0 0 1 0 4zm.25 5.56c.6-1.11 1.06-2.31 1.38-3.56h2.95a7.99 7.99 0 0 1-4.33 3.56zM16.36 14a16.5 16.5 0 0 0 0-4h3.38a7.96 7.96 0 0 1 0 4h-3.38z"/></svg>
